<svg xmlns="http://www.w3.org/2000/svg" viewBox="0 0 410 404"><path fill="#41D1FF" d="M399.641 59.525L215.643 388.545c-2.483 4.44-8.862 4.466-11.382.048L10.396 59.53c-2.746-4.814 1.371-10.646 6.827-9.67l181.51 31.622a6.537 6.537 0 0 0 2.322-.004l191.84-31.616c5.438-.895 9.574 4.796 6.877 9.62Z"/><path fill="#BD34FE" d="M292.965.004L156.801 27.674a3.268 3.268 0 0 0-2.634 3.014l-8.245 146.163a3.268 3.268 0 0 0 3.997 3.378l39.511-8.283c2.318-.486 4.413 1.507 3.936 3.838l-11.73 58.755c-.495 2.474 1.782 4.57 4.215 3.78l24.356-7.836c2.437-.784 4.922 1.31 4.424 3.788l-18.698 91.146c-.732 3.561 3.979 5.473 5.943 2.437l1.313-2.028l115.843-230.24c1.215-2.416-.88-5.186-3.54-4.672l-40.655 7.768c-2.396.458-4.435-1.77-3.759-4.114l26.545-90.522c.677-2.307-1.37-4.524-3.746-4.05Z"/><path fill="#FFDD35" d="m214.953 95.645l-68.932 14.406c-2.396.501-4.44-1.77-3.759-4.115l13.206-45.175c.678-2.308-1.369-4.525-3.746-4.05l-32.493 6.211a3.268 3.268 0 0 0-2.634 3.014l-5.59 99.072a3.268 3.268 0 0 0 3.997 3.378l68.547-14.372c2.318-.486 4.413 1.507 3.936 3.838l-11.73 58.755c-.495 2.474 1.782 4.57 4.215 3.78l24.356-7.836c2.437-.784 4.922 1.31 4.424 3.788l-18.698 91.146c-.732 3.561 3.979 5.473 5.943 2.437l1.313-2.028l79.02-157.014c1.215-2.416-.88-5.186-3.54-4.672l-32.655 6.241c-2.396.458-4.435-1.77-3.759-4.114l10.797-36.864c.677-2.307-1.37-4.524-3.746-4.05Z"/></svg>
